<svg width="170" height="176" viewBox="0 0 170 176" fill="none" xmlns="http://www.w3.org/2000/svg">
<rect width="170" height="176" rx="10" fill="url(#paint0_radial_1_14)"/>
<mask id="path-2-outside-1_1_14" maskUnits="userSpaceOnUse" x="30" y="30" width="109" height="115" fill="black">
<rect fill="white" x="30" y="30" width="109" height="115"/>
<path d="M90.6 76.7H131.85C132.95 76.7 133.9 77.1 134.7 77.9C135.5 78.7 135.9 79.65 135.9 80.75V100.25C135.9 113.45 131.2 123.65 121.8 130.85C112.4 137.95 99.85 141.5 84.15 141.5C68.55 141.5 56.25 138.05 47.25 131.15C38.25 124.15 33.75 113.7 33.75 99.8V74.6C33.75 61.3 38.35 51.15 47.55 44.15C56.75 37.05 69 33.5 84.3 33.5C99.7 33.5 112.15 36.75 121.65 43.25C131.15 49.65 135.9 57.55 135.9 66.95C135.9 67.85 135.55 68.65 134.85 69.35C134.25 69.95 133.5 70.25 132.6 70.25H99.45C97.45 70.25 96 69.7 95.1 68.6C93.1 66 91.6 64.5 90.6 64.1C88.3 63.2 86.2 62.75 84.3 62.75C76.6 62.75 72.75 66.5 72.75 74V99.5C72.75 108 76.85 112.25 85.05 112.25C93.45 112.25 97.65 108.65 97.65 101.45H90.6C89.5 101.45 88.55 101.05 87.75 100.25C86.95 99.45 86.55 98.5 86.55 97.4V80.75C86.55 79.65 86.95 78.7 87.75 77.9C88.55 77.1 89.5 76.7 90.6 76.7Z"/>
</mask>
<path d="M90.6 76.7H131.85C132.95 76.7 133.9 77.1 134.7 77.9C135.5 78.7 135.9 79.65 135.9 80.75V100.25C135.9 113.45 131.2 123.65 121.8 130.85C112.4 137.95 99.85 141.5 84.15 141.5C68.55 141.5 56.25 138.05 47.25 131.15C38.25 124.15 33.75 113.7 33.75 99.8V74.6C33.75 61.3 38.35 51.15 47.55 44.15C56.75 37.05 69 33.5 84.3 33.5C99.7 33.5 112.15 36.75 121.65 43.25C131.15 49.65 135.9 57.55 135.9 66.95C135.9 67.85 135.55 68.65 134.85 69.35C134.25 69.95 133.5 70.25 132.6 70.25H99.45C97.45 70.25 96 69.7 95.1 68.6C93.1 66 91.6 64.5 90.6 64.1C88.3 63.2 86.2 62.75 84.3 62.75C76.6 62.75 72.75 66.5 72.75 74V99.5C72.75 108 76.85 112.25 85.05 112.25C93.45 112.25 97.65 108.65 97.65 101.45H90.6C89.5 101.45 88.55 101.05 87.75 100.25C86.95 99.45 86.55 98.5 86.55 97.4V80.75C86.55 79.65 86.95 78.7 87.75 77.9C88.55 77.1 89.5 76.7 90.6 76.7Z" fill="white"/>
<path d="M134.7 77.9L136.821 75.7787L136.821 75.7787L134.7 77.9ZM121.8 130.85L123.608 133.244L123.616 133.238L123.624 133.232L121.8 130.85ZM47.25 131.15L45.4082 133.518L45.4164 133.524L45.4247 133.531L47.25 131.15ZM47.55 44.15L49.3666 46.5375L49.3747 46.5313L49.3829 46.525L47.55 44.15ZM121.65 43.25L119.956 45.7259L119.965 45.732L119.974 45.7381L121.65 43.25ZM134.85 69.35L136.971 71.4713L136.971 71.4713L134.85 69.35ZM95.1 68.6L92.7221 70.4291L92.7496 70.4648L92.7781 70.4997L95.1 68.6ZM90.6 64.1L91.7142 61.3146L91.7037 61.3104L91.6932 61.3063L90.6 64.1ZM97.65 101.45H100.65V98.45H97.65V101.45ZM87.75 100.25L89.8713 98.1287L89.8713 98.1287L87.75 100.25ZM90.6 79.7H131.85V73.7H90.6V79.7ZM131.85 79.7C132.129 79.7 132.323 79.766 132.579 80.0213L136.821 75.7787C135.477 74.434 133.771 73.7 131.85 73.7V79.7ZM132.579 80.0213C132.834 80.2767 132.9 80.4707 132.9 80.75H138.9C138.9 78.8293 138.166 77.1233 136.821 75.7787L132.579 80.0213ZM132.9 80.75V100.25H138.9V80.75H132.9ZM132.9 100.25C132.9 112.639 128.542 121.907 119.976 128.468L123.624 133.232C133.858 125.393 138.9 114.261 138.9 100.25H132.9ZM119.992 128.456C111.262 135.05 99.4133 138.5 84.15 138.5V144.5C100.287 144.5 113.538 140.85 123.608 133.244L119.992 128.456ZM84.15 138.5C68.9659 138.5 57.3862 135.141 49.0753 128.769L45.4247 133.531C55.1138 140.959 68.1341 144.5 84.15 144.5V138.5ZM49.0918 128.782C40.9838 122.476 36.75 113 36.75 99.8H30.75C30.75 114.4 35.5162 125.824 45.4082 133.518L49.0918 128.782ZM36.75 99.8V74.6H30.75V99.8H36.75ZM36.75 74.6C36.75 62.0768 41.0311 52.8797 49.3666 46.5375L45.7334 41.7625C35.6689 49.4203 30.75 60.5232 30.75 74.6H36.75ZM49.3829 46.525C57.9127 39.9422 69.4531 36.5 84.3 36.5V30.5C68.5469 30.5 55.5873 34.1578 45.7171 41.775L49.3829 46.525ZM84.3 36.5C99.2959 36.5 111.098 39.6653 119.956 45.7259L123.344 40.7741C113.202 33.8347 100.104 30.5 84.3 30.5V36.5ZM119.974 45.7381C128.853 51.7196 132.9 58.7734 132.9 66.95H138.9C138.9 56.3266 133.447 47.5804 123.326 40.7619L119.974 45.7381ZM132.9 66.95C132.9 66.9793 132.897 66.9951 132.896 67.0013C132.895 67.0073 132.893 67.0133 132.889 67.0225C132.883 67.0371 132.849 67.1081 132.729 67.2287L136.971 71.4713C138.172 70.2705 138.9 68.7289 138.9 66.95H132.9ZM132.729 67.2287C132.712 67.2454 132.705 67.2496 132.708 67.2476C132.711 67.2454 132.717 67.242 132.723 67.2396C132.729 67.2372 132.726 67.2392 132.71 67.2421C132.693 67.2452 132.658 67.25 132.6 67.25V73.25C134.242 73.25 135.772 72.6707 136.971 71.4713L132.729 67.2287ZM132.6 67.25H99.45V73.25H132.6V67.25ZM99.45 67.25C97.9662 67.25 97.547 66.8533 97.4219 66.7003L92.7781 70.4997C94.453 72.5467 96.9338 73.25 99.45 73.25V67.25ZM97.4779 66.7709C96.4365 65.417 95.4733 64.2807 94.5963 63.4037C93.7836 62.591 92.8036 61.7503 91.7142 61.3146L89.4858 66.8854C89.3964 66.8497 89.6664 66.959 90.3537 67.6463C90.9767 68.2693 91.7635 69.183 92.7221 70.4291L97.4779 66.7709ZM91.6932 61.3063C89.1442 60.3088 86.6677 59.75 84.3 59.75V65.75C85.7323 65.75 87.4558 66.0912 89.5068 66.8937L91.6932 61.3063ZM84.3 59.75C80.0071 59.75 76.2327 60.7948 73.5443 63.4134C70.8412 66.0463 69.75 69.7672 69.75 74H75.75C75.75 70.7328 76.5838 68.8287 77.7307 67.7115C78.8923 66.5801 80.8929 65.75 84.3 65.75V59.75ZM69.75 74V99.5H75.75V74H69.75ZM69.75 99.5C69.75 104.186 70.8788 108.256 73.6659 111.145C76.4724 114.055 80.4596 115.25 85.05 115.25V109.25C81.4404 109.25 79.2776 108.32 77.9841 106.98C76.6712 105.619 75.75 103.314 75.75 99.5H69.75ZM85.05 115.25C89.609 115.25 93.588 114.283 96.4524 111.828C99.4052 109.297 100.65 105.644 100.65 101.45H94.65C94.65 104.456 93.7948 106.203 92.5476 107.272C91.212 108.417 88.891 109.25 85.05 109.25V115.25ZM97.65 98.45H90.6V104.45H97.65V98.45ZM90.6 98.45C90.3207 98.45 90.1267 98.384 89.8713 98.1287L85.6287 102.371C86.9733 103.716 88.6793 104.45 90.6 104.45V98.45ZM89.8713 98.1287C89.616 97.8733 89.55 97.6793 89.55 97.4H83.55C83.55 99.3207 84.284 101.027 85.6287 102.371L89.8713 98.1287ZM89.55 97.4V80.75H83.55V97.4H89.55ZM89.55 80.75C89.55 80.4707 89.616 80.2767 89.8713 80.0213L85.6287 75.7787C84.284 77.1233 83.55 78.8293 83.55 80.75H89.55ZM89.8713 80.0213C90.1267 79.766 90.3207 79.7 90.6 79.7V73.7C88.6793 73.7 86.9733 74.434 85.6287 75.7787L89.8713 80.0213Z" fill="#2C379F" mask="url(#path-2-outside-1_1_14)"/>
<path d="M115.792 167.734H116.24V167.944H115.89V168.014H115.988C115.979 168.051 115.974 168.084 115.974 168.112C115.974 168.149 115.969 168.187 115.96 168.224H115.946V168.294H115.288C115.279 168.313 115.274 168.336 115.274 168.364C115.274 168.392 115.269 168.415 115.26 168.434H116.072C116.063 168.481 116.053 168.527 116.044 168.574C116.035 168.621 116.025 168.667 116.016 168.714H115.792C115.783 168.751 115.773 168.784 115.764 168.812C115.755 168.849 115.741 168.887 115.722 168.924H115.26L115.204 169.064H115.442L115.386 169.204H115.414C115.395 169.251 115.372 169.297 115.344 169.344H115.358L115.232 169.554C115.223 169.563 115.213 169.573 115.204 169.582C115.204 169.591 115.199 169.605 115.19 169.624C115.171 169.661 115.148 169.694 115.12 169.722C115.092 169.759 115.064 169.797 115.036 169.834H115.008L114.938 169.904H115.204L115.078 170.044H114.756C114.728 170.063 114.7 170.086 114.672 170.114C114.644 170.142 114.621 170.165 114.602 170.184H114.98C114.943 170.221 114.896 170.254 114.84 170.282C114.793 170.319 114.747 170.357 114.7 170.394H115.204C115.148 170.431 115.087 170.464 115.022 170.492C114.966 170.529 114.905 170.567 114.84 170.604H114.7C114.653 170.632 114.602 170.655 114.546 170.674C114.49 170.702 114.439 170.725 114.392 170.744H113.594C113.417 170.809 113.235 170.865 113.048 170.912C112.861 170.959 112.67 170.996 112.474 171.024H113.3C113.16 171.043 113.015 171.057 112.866 171.066C112.717 171.075 112.567 171.08 112.418 171.08C112.259 171.08 112.101 171.075 111.942 171.066C111.793 171.057 111.648 171.043 111.508 171.024H110.682C110.262 170.968 109.875 170.875 109.52 170.744H110.318C110.262 170.725 110.206 170.702 110.15 170.674C110.094 170.655 110.038 170.632 109.982 170.604H110.122C110.057 170.567 109.991 170.529 109.926 170.492C109.861 170.464 109.795 170.431 109.73 170.394H109.24C109.184 170.357 109.128 170.319 109.072 170.282C109.025 170.254 108.979 170.221 108.932 170.184H108.554C108.479 170.128 108.423 170.081 108.386 170.044H108.708C108.68 170.025 108.652 170.002 108.624 169.974C108.596 169.946 108.573 169.923 108.554 169.904H108.288C108.279 169.885 108.269 169.871 108.26 169.862C108.251 169.853 108.237 169.843 108.218 169.834H108.26C108.223 169.797 108.19 169.759 108.162 169.722C108.134 169.694 108.106 169.661 108.078 169.624H108.064C108.055 169.605 108.036 169.582 108.008 169.554H108.022C107.994 169.517 107.966 169.479 107.938 169.442C107.91 169.414 107.887 169.381 107.868 169.344L107.784 169.204H107.756C107.747 169.185 107.737 169.162 107.728 169.134C107.719 169.106 107.705 169.083 107.686 169.064H107.448L107.392 168.924H107.868C107.859 168.887 107.845 168.849 107.826 168.812C107.817 168.784 107.807 168.751 107.798 168.714H107.714C107.714 168.686 107.709 168.658 107.7 168.63C107.7 168.611 107.7 168.593 107.7 168.574C107.7 168.509 107.705 168.462 107.714 168.434H107.672C107.7 168.378 107.733 168.331 107.77 168.294H107.686C107.742 168.257 107.784 168.233 107.812 168.224H107.994C108.05 168.205 108.101 168.196 108.148 168.196H110.878C110.925 168.196 110.976 168.205 111.032 168.224H110.836C110.883 168.233 110.92 168.257 110.948 168.294H111.032C111.069 168.331 111.102 168.378 111.13 168.434H111.172L111.2 168.476C111.265 168.588 111.326 168.667 111.382 168.714H111.452C111.555 168.789 111.695 168.826 111.872 168.826C112.012 168.826 112.133 168.789 112.236 168.714H112.46C112.544 168.649 112.605 168.555 112.642 168.434H111.83C111.849 168.378 111.858 168.331 111.858 168.294H112.516C112.525 168.275 112.53 168.252 112.53 168.224H112.544C112.553 168.187 112.558 168.149 112.558 168.112C112.558 168.084 112.558 168.051 112.558 168.014H112.474V167.944H112.81V167.734H112.362V167.664H112.096V167.594H112.348V167.314H112.082V167.23L111.942 167.314H111.928C111.704 167.445 111.461 167.538 111.2 167.594H111.256C111.181 167.603 111.107 167.617 111.032 167.636C110.957 167.645 110.878 167.655 110.794 167.664H110.444C110.388 167.673 110.332 167.678 110.276 167.678C110.22 167.678 110.164 167.678 110.108 167.678C110.043 167.678 109.977 167.678 109.912 167.678C109.847 167.678 109.786 167.673 109.73 167.664H110.066C109.982 167.655 109.898 167.645 109.814 167.636C109.73 167.617 109.646 167.603 109.562 167.594H109.52C109.38 167.566 109.245 167.529 109.114 167.482C108.993 167.435 108.871 167.379 108.75 167.314H108.764C108.727 167.295 108.689 167.277 108.652 167.258C108.615 167.23 108.577 167.202 108.54 167.174H108.862C108.806 167.127 108.75 167.081 108.694 167.034C108.647 166.987 108.601 166.941 108.554 166.894H107.42L107.35 166.824H107.994C107.919 166.731 107.854 166.637 107.798 166.544H107.98C107.915 166.451 107.863 166.357 107.826 166.264H107.798C107.751 166.161 107.714 166.068 107.686 165.984H106.664C106.664 165.965 106.664 165.951 106.664 165.942C106.655 165.933 106.65 165.923 106.65 165.914H107.602L107.56 165.774H107.63C107.621 165.727 107.607 165.681 107.588 165.634C107.579 165.587 107.569 165.541 107.56 165.494H107.728L107.686 165.214H107.504L107.49 165.074H107.154C107.145 165.027 107.14 164.981 107.14 164.934C107.14 164.887 107.135 164.841 107.126 164.794H107C107 164.757 107 164.724 107 164.696C106.991 164.659 106.986 164.621 106.986 164.584H107.182V164.444H107.434C107.434 164.407 107.429 164.374 107.42 164.346C107.42 164.309 107.42 164.271 107.42 164.234H107.546V164.024H107.322C107.322 163.987 107.322 163.954 107.322 163.926C107.322 163.889 107.327 163.851 107.336 163.814H107.364V163.8C107.364 163.763 107.364 163.73 107.364 163.702C107.373 163.674 107.378 163.641 107.378 163.604H107.434C107.443 163.567 107.448 163.534 107.448 163.506C107.448 163.469 107.453 163.431 107.462 163.394C107.471 163.375 107.476 163.352 107.476 163.324C107.476 163.296 107.481 163.273 107.49 163.254H107.42V163.184H107.504C107.513 163.137 107.523 163.091 107.532 163.044C107.541 162.988 107.551 162.941 107.56 162.904H107.546C107.555 162.867 107.565 162.834 107.574 162.806C107.583 162.769 107.593 162.731 107.602 162.694H107.714C107.733 162.647 107.747 162.601 107.756 162.554C107.775 162.498 107.793 162.451 107.812 162.414H107.882L107.91 162.344H107.714C107.723 162.325 107.733 162.302 107.742 162.274C107.751 162.246 107.761 162.223 107.77 162.204L107.854 161.994C107.863 161.975 107.868 161.961 107.868 161.952C107.877 161.943 107.887 161.933 107.896 161.924L107.938 161.854C107.957 161.835 107.971 161.812 107.98 161.784C107.999 161.756 108.017 161.733 108.036 161.714C108.045 161.695 108.055 161.681 108.064 161.672C108.073 161.663 108.083 161.653 108.092 161.644H108.064L108.232 161.434C108.26 161.415 108.283 161.392 108.302 161.364C108.33 161.336 108.353 161.313 108.372 161.294H108.4C108.409 161.275 108.419 161.261 108.428 161.252C108.447 161.243 108.461 161.233 108.47 161.224H108.624C108.68 161.168 108.741 161.121 108.806 161.084H108.456C108.493 161.056 108.531 161.033 108.568 161.014C108.605 160.986 108.643 160.963 108.68 160.944H108.778C108.909 160.869 109.067 160.799 109.254 160.734H109.716C110.052 160.631 110.411 160.58 110.794 160.58C111.13 160.58 111.443 160.631 111.732 160.734H111.27C111.419 160.781 111.569 160.851 111.718 160.944H111.634C111.671 160.963 111.704 160.986 111.732 161.014C111.769 161.033 111.807 161.056 111.844 161.084H112.18C112.217 161.103 112.25 161.126 112.278 161.154C112.306 161.182 112.334 161.205 112.362 161.224H112.208L112.278 161.294H112.264L112.39 161.434C112.409 161.443 112.423 161.457 112.432 161.476C112.451 161.495 112.465 161.513 112.474 161.532V161.434H112.53V161.294H112.768V161.224H112.922V161.084H112.236C112.236 161.028 112.25 160.981 112.278 160.944H112.516C112.563 160.832 112.642 160.762 112.754 160.734H112.474C112.502 160.725 112.539 160.72 112.586 160.72H115.036C115.083 160.72 115.115 160.725 115.134 160.734H115.414C115.526 160.762 115.605 160.832 115.652 160.944H115.414C115.433 161 115.442 161.047 115.442 161.084H116.128V161.224H115.974V161.294H115.736V161.434H115.68V161.644H115.694V161.854H115.68V162.204H115.694V162.344H115.89V162.414H115.806V162.694H115.68L115.694 162.904V163.254H115.652V163.394H115.61V163.604H115.694V163.814H115.862V164.024H115.568V164.234H115.666V164.444H115.694V164.584H115.232L115.246 164.794H115.302V165.074H115.61V165.214H115.862V165.494H115.68V165.774H115.624V165.914H114.658V165.984H115.68V166.264H115.708V166.544H115.512L115.526 166.824H114.882V166.894H116.016V167.174H115.512V167.314H115.778V167.594H115.526V167.664H115.792V167.734ZM111.074 165.074C111.139 165.139 111.223 165.186 111.326 165.214H111.494C111.531 165.223 111.569 165.233 111.606 165.242C111.653 165.242 111.695 165.242 111.732 165.242C111.779 165.242 111.821 165.242 111.858 165.242C111.905 165.233 111.947 165.223 111.984 165.214H111.732C111.835 165.186 111.919 165.139 111.984 165.074H111.676C111.751 164.999 111.802 164.906 111.83 164.794H111.774L111.816 164.584H112.264C112.264 164.565 112.269 164.551 112.278 164.542V164.444H112.25V164.234H112.166V164.024H112.446V163.814H112.264V163.786C112.264 163.749 112.259 163.716 112.25 163.688C112.25 163.66 112.245 163.632 112.236 163.604H112.166C112.157 163.529 112.133 163.459 112.096 163.394H112.124C112.096 163.338 112.063 163.291 112.026 163.254H112.068C112.031 163.217 112.003 163.193 111.984 163.184C111.891 163.119 111.755 163.086 111.578 163.086C111.401 163.086 111.265 163.119 111.172 163.184H111.088C111.069 163.193 111.041 163.217 111.004 163.254H111.074C111.037 163.291 111.004 163.338 110.976 163.394H110.962C110.953 163.422 110.943 163.455 110.934 163.492C110.925 163.52 110.911 163.557 110.892 163.604H110.836C110.827 163.641 110.817 163.679 110.808 163.716C110.808 163.744 110.808 163.777 110.808 163.814H110.766V163.898C110.757 163.926 110.752 163.968 110.752 164.024H110.976V164.234H110.85C110.85 164.271 110.85 164.309 110.85 164.346C110.859 164.374 110.864 164.402 110.864 164.43V164.444H110.612L110.626 164.584H110.43L110.472 164.794H110.598C110.626 164.906 110.677 164.999 110.752 165.074H111.074ZM112.46 167.174H112.586V167.076L112.46 167.174ZM124.08 164.164V164.304H125.858V164.444H124.78V164.584H124.276V164.724H124.71V164.808C124.71 164.864 124.706 164.906 124.696 164.934H124.892C124.827 165.102 124.706 165.186 124.528 165.186H120.356V165.214H120.916V165.256C120.916 165.293 120.916 165.335 120.916 165.382C120.916 165.419 120.921 165.457 120.93 165.494H120.174C120.174 165.522 120.174 165.55 120.174 165.578C120.184 165.597 120.188 165.615 120.188 165.634H120.104C120.104 165.671 120.114 165.718 120.132 165.774H120.188C120.235 165.905 120.31 165.998 120.412 166.054H120.034C120.1 166.091 120.188 166.11 120.3 166.11C120.375 166.11 120.436 166.091 120.482 166.054H121.14C121.178 166.035 121.21 166.007 121.238 165.97C121.276 165.933 121.318 165.895 121.364 165.858L121.448 165.774H121.182C121.266 165.699 121.392 165.662 121.56 165.662H124.206C124.318 165.662 124.402 165.699 124.458 165.774H124.71C124.757 165.839 124.78 165.905 124.78 165.97C124.771 165.989 124.766 166.017 124.766 166.054H124.108C124.09 166.147 124.062 166.241 124.024 166.334H123.338C123.31 166.381 123.287 166.427 123.268 166.474H125.004C124.986 166.521 124.958 166.567 124.92 166.614C124.892 166.661 124.86 166.707 124.822 166.754H124.402C124.365 166.81 124.328 166.857 124.29 166.894H124.388C124.379 166.903 124.37 166.913 124.36 166.922C124.351 166.931 124.342 166.945 124.332 166.964H123.548L123.478 167.034H123.716C123.707 167.043 123.693 167.053 123.674 167.062C123.665 167.071 123.656 167.085 123.646 167.104H124.08C124.015 167.169 123.931 167.239 123.828 167.314H123.618C123.609 167.323 123.595 167.333 123.576 167.342C123.558 167.351 123.539 167.365 123.52 167.384H123.366C123.217 167.487 123.054 167.58 122.876 167.664H122.694C122.582 167.72 122.461 167.771 122.33 167.818C122.209 167.865 122.078 167.907 121.938 167.944H121.714C121.612 167.972 121.504 167.995 121.392 168.014C121.28 168.042 121.159 168.065 121.028 168.084H121.616C121.486 168.103 121.35 168.117 121.21 168.126C121.07 168.135 120.921 168.14 120.762 168.14C120.613 168.14 120.464 168.135 120.314 168.126C120.165 168.117 120.02 168.103 119.88 168.084H119.292C119.171 168.065 119.054 168.042 118.942 168.014C118.83 167.995 118.718 167.972 118.606 167.944H118.83C118.578 167.879 118.34 167.785 118.116 167.664H118.298C118.13 167.571 117.986 167.477 117.864 167.384H118.018C118 167.365 117.981 167.351 117.962 167.342C117.953 167.333 117.939 167.323 117.92 167.314H118.13C118.093 167.277 118.056 167.244 118.018 167.216C117.981 167.179 117.944 167.141 117.906 167.104H117.458L117.388 167.034H117.15C117.141 167.015 117.132 167.001 117.122 166.992C117.113 166.983 117.104 166.973 117.094 166.964H117.864C117.855 166.945 117.836 166.922 117.808 166.894H117.71C117.692 166.875 117.673 166.852 117.654 166.824C117.636 166.796 117.617 166.773 117.598 166.754H118.018C117.99 166.707 117.962 166.661 117.934 166.614C117.906 166.567 117.878 166.521 117.85 166.474H116.1C116.072 166.427 116.049 166.381 116.03 166.334H116.716L116.59 166.054H116.968C116.95 166.007 116.931 165.961 116.912 165.914C116.903 165.867 116.889 165.821 116.87 165.774H116.828L116.786 165.634H116.884L116.842 165.494H117.598C117.589 165.447 117.58 165.401 117.57 165.354C117.561 165.307 117.552 165.261 117.542 165.214H116.982L116.954 164.934H116.758C116.758 164.897 116.754 164.864 116.744 164.836C116.744 164.799 116.744 164.761 116.744 164.724H116.31V164.584H116.8V164.444H117.878V164.304H116.1V164.276C116.1 164.229 116.105 164.192 116.114 164.164H118.536C118.536 164.127 118.536 164.094 118.536 164.066C118.546 164.029 118.55 163.991 118.55 163.954H116.324C116.324 163.935 116.324 163.921 116.324 163.912C116.334 163.903 116.338 163.893 116.338 163.884H117.262C117.262 163.856 117.267 163.833 117.276 163.814H118.312V163.744H116.338C116.348 163.697 116.357 163.651 116.366 163.604C116.376 163.557 116.385 163.511 116.394 163.464H116.926C116.926 163.427 116.936 163.38 116.954 163.324H116.492C116.492 163.305 116.492 163.291 116.492 163.282C116.502 163.273 116.506 163.263 116.506 163.254H116.842C116.842 163.235 116.842 163.221 116.842 163.212C116.852 163.203 116.856 163.193 116.856 163.184H116.506L116.534 163.114H116.87L116.912 162.974H117.178L117.262 162.764H117.01C117.029 162.717 117.048 162.671 117.066 162.624C117.085 162.568 117.108 162.521 117.136 162.484H117.094L117.122 162.414H116.772C116.791 162.377 116.8 162.353 116.8 162.344H116.478L116.562 162.204H117.248C117.258 162.185 117.276 162.162 117.304 162.134H117.556C117.594 162.087 117.626 162.041 117.654 161.994C117.692 161.938 117.729 161.891 117.766 161.854H117.514C117.542 161.817 117.57 161.784 117.598 161.756C117.636 161.719 117.673 161.681 117.71 161.644H118.256L118.396 161.504H117.57C117.692 161.401 117.813 161.308 117.934 161.224H118.704L118.816 161.154H118.564C118.639 161.107 118.728 161.061 118.83 161.014H119.376C119.628 160.893 119.89 160.799 120.16 160.734H119.376C119.582 160.687 119.796 160.65 120.02 160.622C120.244 160.594 120.478 160.58 120.72 160.58C120.963 160.58 121.192 160.594 121.406 160.622C121.621 160.65 121.826 160.687 122.022 160.734H122.792C122.932 160.771 123.063 160.813 123.184 160.86C123.315 160.907 123.441 160.958 123.562 161.014H123.016C123.063 161.033 123.105 161.056 123.142 161.084C123.189 161.103 123.231 161.126 123.268 161.154H123.52C123.539 161.163 123.558 161.173 123.576 161.182C123.595 161.191 123.614 161.205 123.632 161.224H122.862C122.984 161.308 123.105 161.401 123.226 161.504H124.066L124.206 161.644H123.66C123.698 161.681 123.73 161.719 123.758 161.756C123.796 161.784 123.828 161.817 123.856 161.854H124.108C124.146 161.891 124.178 161.938 124.206 161.994C124.244 162.041 124.281 162.087 124.318 162.134H124.052C124.062 162.153 124.08 162.176 124.108 162.204H123.408L123.492 162.344H123.814L123.856 162.414H124.22C124.22 162.423 124.23 162.447 124.248 162.484H124.29L124.416 162.764L124.5 162.974H124.514L124.556 163.114H124.388L124.416 163.184H124.542L124.57 163.254H124.794C124.794 163.263 124.794 163.273 124.794 163.282C124.804 163.291 124.808 163.305 124.808 163.324H124.696L124.738 163.464H124.206L124.248 163.744H126.222V163.814H125.186C125.186 163.823 125.186 163.833 125.186 163.842C125.196 163.851 125.2 163.865 125.2 163.884H124.262C124.272 163.903 124.276 163.926 124.276 163.954H126.502C126.502 163.991 126.502 164.029 126.502 164.066C126.502 164.094 126.507 164.127 126.516 164.164H124.08ZM119.824 163.254V163.324H120.272V163.436H121.392V163.324H121.49V163.254H121.266V163.184H121.126C121.126 163.156 121.122 163.133 121.112 163.114H121.28C121.28 163.077 121.271 163.03 121.252 162.974H121.238C121.229 162.89 121.201 162.82 121.154 162.764C121.061 162.615 120.916 162.54 120.72 162.54C120.534 162.54 120.394 162.615 120.3 162.764H120.552C120.515 162.82 120.487 162.89 120.468 162.974H120.188C120.188 162.993 120.184 163.016 120.174 163.044C120.174 163.063 120.17 163.086 120.16 163.114H119.824C119.824 163.142 119.82 163.165 119.81 163.184H120.16V163.254H119.824ZM134.763 163.954C134.772 164.001 134.777 164.047 134.777 164.094C134.777 164.141 134.777 164.187 134.777 164.234H133.783V164.374H133.209V164.514H133.755V164.584H133.125V164.794H132.775V164.864H133.559C133.559 164.892 133.554 164.915 133.545 164.934H133.503V165.004H133.629V165.018C133.629 165.055 133.624 165.097 133.615 165.144C133.615 165.191 133.61 165.237 133.601 165.284H133.503L133.461 165.564H133.671C133.671 165.601 133.662 165.648 133.643 165.704H133.601C133.592 165.741 133.582 165.779 133.573 165.816C133.564 165.844 133.554 165.877 133.545 165.914H133.657C133.648 165.961 133.634 166.007 133.615 166.054C133.596 166.101 133.578 166.147 133.559 166.194H133.349L133.293 166.334H133.321C133.302 166.371 133.293 166.395 133.293 166.404H133.237C133.2 166.497 133.148 166.591 133.083 166.684H133.111C133.102 166.703 133.088 166.726 133.069 166.754C133.05 166.782 133.032 166.805 133.013 166.824H132.999L132.831 167.034C132.822 167.043 132.812 167.053 132.803 167.062C132.794 167.071 132.78 167.085 132.761 167.104H132.691C132.654 167.141 132.616 167.179 132.579 167.216C132.542 167.244 132.5 167.277 132.453 167.314H132.033L131.739 167.524H131.795C131.776 167.533 131.758 167.543 131.739 167.552C131.72 167.561 131.702 167.575 131.683 167.594H131.585C131.566 167.603 131.543 167.613 131.515 167.622C131.487 167.631 131.464 167.645 131.445 167.664H132.201C132.154 167.692 132.103 167.72 132.047 167.748C131.991 167.767 131.935 167.785 131.879 167.804H131.641C131.576 167.832 131.506 167.86 131.431 167.888C131.356 167.907 131.282 167.925 131.207 167.944H131.263C131.151 167.972 131.034 167.995 130.913 168.014C130.792 168.042 130.666 168.065 130.535 168.084H130.969C130.82 168.103 130.666 168.117 130.507 168.126C130.348 168.135 130.185 168.14 130.017 168.14C129.84 168.14 129.672 168.135 129.513 168.126C129.364 168.117 129.21 168.103 129.051 168.084H128.603C128.482 168.065 128.356 168.042 128.225 168.014C128.104 167.995 127.987 167.972 127.875 167.944H127.833C127.758 167.925 127.684 167.907 127.609 167.888C127.544 167.86 127.474 167.832 127.399 167.804H127.623C127.576 167.785 127.525 167.767 127.469 167.748C127.413 167.72 127.362 167.692 127.315 167.664H126.559L126.433 167.594H126.531L126.405 167.524H126.349C126.237 167.449 126.139 167.379 126.055 167.314H126.475C126.438 167.277 126.4 167.244 126.363 167.216C126.326 167.179 126.288 167.141 126.251 167.104H126.321C126.312 167.085 126.302 167.071 126.293 167.062C126.284 167.053 126.27 167.043 126.251 167.034L126.083 166.824H126.097L125.999 166.684H125.971C125.906 166.591 125.854 166.497 125.817 166.404H125.859C125.84 166.367 125.831 166.343 125.831 166.334H125.789L125.733 166.194H125.943C125.934 166.147 125.92 166.101 125.901 166.054C125.882 166.007 125.864 165.961 125.845 165.914H125.733C125.724 165.877 125.714 165.844 125.705 165.816C125.696 165.779 125.686 165.741 125.677 165.704H125.593L125.551 165.564H125.411L125.369 165.284H125.509C125.5 165.237 125.49 165.191 125.481 165.144C125.481 165.097 125.481 165.055 125.481 165.018V165.004H125.229V164.934H125.159C125.159 164.915 125.154 164.901 125.145 164.892C125.145 164.883 125.145 164.873 125.145 164.864H125.929C125.929 164.836 125.924 164.813 125.915 164.794H125.131V164.584H125.467V164.514H125.635V164.374H125.929V164.234H125.075C125.075 164.187 125.075 164.141 125.075 164.094C125.075 164.047 125.08 164.001 125.089 163.954H124.907V163.814H126.293C126.302 163.786 126.307 163.749 126.307 163.702V163.604H125.929C125.929 163.567 125.929 163.534 125.929 163.506C125.938 163.469 125.943 163.431 125.943 163.394H126.083L126.125 163.114H125.663C125.672 163.077 125.682 163.044 125.691 163.016C125.7 162.979 125.71 162.941 125.719 162.904H125.621C125.64 162.857 125.654 162.811 125.663 162.764C125.682 162.708 125.7 162.661 125.719 162.624H125.733C125.742 162.605 125.752 162.582 125.761 162.554C125.77 162.526 125.78 162.503 125.789 162.484H125.775C125.775 162.475 125.784 162.451 125.803 162.414H125.873C125.91 162.321 125.962 162.227 126.027 162.134H125.747L125.831 161.994H126.349C126.358 161.975 126.377 161.952 126.405 161.924H125.383C125.402 161.887 125.425 161.854 125.453 161.826C125.49 161.789 125.523 161.751 125.551 161.714H125.873C125.92 161.667 125.966 161.621 126.013 161.574C126.069 161.518 126.12 161.471 126.167 161.434H126.811C126.895 161.359 126.993 161.289 127.105 161.224H127.371C127.408 161.196 127.446 161.173 127.483 161.154C127.53 161.126 127.572 161.103 127.609 161.084H126.783C126.867 161.037 126.97 160.991 127.091 160.944H127.469C127.684 160.86 127.908 160.79 128.141 160.734H127.721C128.178 160.631 128.664 160.58 129.177 160.58C129.69 160.58 130.176 160.631 130.633 160.734H131.067C131.3 160.79 131.52 160.86 131.725 160.944H131.333C131.454 160.991 131.557 161.037 131.641 161.084H132.467C132.514 161.103 132.556 161.126 132.593 161.154C132.64 161.173 132.682 161.196 132.719 161.224H132.453L132.747 161.434H132.103C132.159 161.471 132.21 161.518 132.257 161.574C132.313 161.621 132.364 161.667 132.411 161.714H132.089C132.117 161.751 132.145 161.789 132.173 161.826C132.21 161.854 132.238 161.887 132.257 161.924H133.293L133.335 161.994H132.831L132.915 162.134H133.195C133.26 162.227 133.312 162.321 133.349 162.414H133.279C133.298 162.451 133.307 162.475 133.307 162.484H133.335L133.391 162.624H133.377C133.396 162.661 133.414 162.708 133.433 162.764C133.452 162.811 133.466 162.857 133.475 162.904H133.615L133.657 163.114H133.573C133.592 163.151 133.601 163.198 133.601 163.254C133.61 163.301 133.62 163.347 133.629 163.394H133.741C133.75 163.431 133.755 163.469 133.755 163.506C133.755 163.534 133.76 163.567 133.769 163.604H133.223V163.702C133.223 163.749 133.228 163.786 133.237 163.814H132.957V163.954H134.763ZM129.387 163.394C129.378 163.431 129.368 163.469 129.359 163.506C129.359 163.534 129.359 163.567 129.359 163.604H129.751C129.742 163.632 129.737 163.66 129.737 163.688C129.737 163.716 129.737 163.744 129.737 163.772V163.814H129.793V163.772C129.793 163.744 129.788 163.716 129.779 163.688C129.779 163.66 129.779 163.632 129.779 163.604H130.325C130.325 163.567 130.32 163.534 130.311 163.506C130.311 163.469 130.311 163.431 130.311 163.394H130.199C130.19 163.338 130.176 163.287 130.157 163.24C130.148 163.193 130.134 163.151 130.115 163.114H130.213C130.176 163.03 130.12 162.96 130.045 162.904H129.905C129.812 162.848 129.69 162.82 129.541 162.82C129.392 162.82 129.275 162.848 129.191 162.904H129.289C129.252 162.932 129.219 162.965 129.191 163.002C129.163 163.03 129.14 163.067 129.121 163.114H129.583C129.574 163.151 129.56 163.193 129.541 163.24C129.532 163.287 129.522 163.338 129.513 163.394H129.387ZM130.339 164.234H131.333V163.954H129.527C129.518 163.917 129.513 163.87 129.513 163.814H128.351C128.351 163.87 128.346 163.917 128.337 163.954H128.519V164.234H129.373V164.374H129.065V164.514H128.897V164.584H128.561C128.561 164.621 128.561 164.659 128.561 164.696C128.57 164.724 128.575 164.757 128.575 164.794H129.681V164.584H130.311V164.514H129.765V164.374H130.339V164.234ZM130.115 164.934V164.864H128.589V164.934H128.659V164.948C128.659 164.957 128.659 164.967 128.659 164.976C128.668 164.985 128.673 164.995 128.673 165.004H128.911C128.92 165.051 128.925 165.097 128.925 165.144C128.925 165.191 128.93 165.237 128.939 165.284H128.799C128.818 165.405 128.836 165.499 128.855 165.564H129.009C129.028 165.62 129.046 165.667 129.065 165.704H129.163C129.247 165.835 129.406 165.9 129.639 165.9C129.872 165.9 130.031 165.835 130.115 165.704H130.171C130.18 165.685 130.19 165.667 130.199 165.648C130.208 165.62 130.218 165.592 130.227 165.564H130.017C130.026 165.517 130.036 165.475 130.045 165.438C130.054 165.391 130.064 165.34 130.073 165.284H130.171C130.18 165.237 130.185 165.191 130.185 165.144C130.185 165.097 130.19 165.051 130.199 165.004H130.073V164.934H130.115ZM142.513 165.774H141.953V165.914H141.995V166.054H143.745V166.334H143.059V166.474H142.107V166.684H143.591V166.824H142.765V166.894H142.653V167.174H142.163V167.314H142.611V167.454H142.205V167.622C142.205 167.641 142.201 167.659 142.191 167.678C142.191 167.697 142.191 167.715 142.191 167.734H142.527C142.527 167.743 142.518 167.767 142.499 167.804H142.611C142.546 167.935 142.439 168 142.289 168H139.909C139.769 168 139.657 167.935 139.573 167.804H139.461L139.419 167.734H139.083C139.074 167.715 139.069 167.692 139.069 167.664L138.957 167.734H139.083L138.971 167.804H139.405C139.256 167.888 139.088 167.958 138.901 168.014H138.831C138.785 168.023 138.733 168.033 138.677 168.042C138.631 168.061 138.584 168.075 138.537 168.084H138.467C138.365 168.103 138.257 168.117 138.145 168.126C138.043 168.135 137.935 168.14 137.823 168.14C137.702 168.14 137.585 168.135 137.473 168.126C137.361 168.117 137.254 168.103 137.151 168.084H137.221C137.175 168.075 137.123 168.061 137.067 168.042C137.011 168.033 136.96 168.023 136.913 168.014H136.983C136.787 167.958 136.61 167.888 136.451 167.804H136.017L135.891 167.734H135.765C135.7 167.687 135.635 167.645 135.569 167.608C135.513 167.561 135.457 167.51 135.401 167.454H135.821L135.681 167.314H134.813L134.687 167.174H135.191C135.117 167.081 135.051 166.987 134.995 166.894H135.107L135.065 166.824H135.877C135.859 166.777 135.835 166.731 135.807 166.684H134.323L134.239 166.474H135.177L135.135 166.334H135.821L135.737 166.054H133.987L133.945 165.914H133.917C133.899 165.858 133.889 165.811 133.889 165.774H134.435C134.426 165.727 134.417 165.681 134.407 165.634C134.398 165.587 134.389 165.541 134.379 165.494H135.219C135.21 165.475 135.205 165.452 135.205 165.424C135.205 165.396 135.205 165.373 135.205 165.354H134.771C134.771 165.317 134.767 165.284 134.757 165.256C134.757 165.219 134.757 165.181 134.757 165.144H134.477C134.477 165.107 134.477 165.074 134.477 165.046C134.477 165.009 134.473 164.971 134.463 164.934H134.435V164.864C134.435 164.827 134.431 164.794 134.421 164.766C134.421 164.729 134.421 164.691 134.421 164.654H134.211C134.202 164.617 134.197 164.584 134.197 164.556C134.197 164.519 134.197 164.481 134.197 164.444H134.463V164.164H134.533V164.094H134.561V163.814H134.855V163.8C134.855 163.753 134.855 163.707 134.855 163.66C134.855 163.613 134.86 163.571 134.869 163.534H134.113C134.123 163.497 134.127 163.464 134.127 163.436C134.127 163.399 134.132 163.361 134.141 163.324H134.729V163.254H134.757C134.767 163.235 134.771 163.212 134.771 163.184C134.771 163.156 134.776 163.133 134.785 163.114H134.827L134.869 162.904H134.561L134.589 162.834H134.547C134.557 162.797 134.566 162.764 134.575 162.736C134.585 162.699 134.594 162.661 134.603 162.624H134.687C134.706 162.577 134.72 162.531 134.729 162.484C134.748 162.428 134.767 162.381 134.785 162.344H134.757L134.785 162.274C134.804 162.227 134.823 162.181 134.841 162.134C134.869 162.078 134.897 162.031 134.925 161.994L135.051 161.784H134.911L135.009 161.644H134.827C134.865 161.607 134.902 161.56 134.939 161.504H135.429C135.448 161.485 135.467 161.462 135.485 161.434C135.513 161.406 135.541 161.383 135.569 161.364H135.079C135.145 161.299 135.196 161.252 135.233 161.224H135.667C135.77 161.14 135.868 161.07 135.961 161.014H135.807C135.994 160.902 136.195 160.809 136.409 160.734H136.199C136.535 160.631 136.876 160.58 137.221 160.58C137.576 160.58 137.907 160.631 138.215 160.734H138.425C138.631 160.799 138.822 160.893 138.999 161.014H139.741V160.734H139.433V160.454H139.853V160.244H139.839V159.964H139.223V159.824H139.349V159.684H139.447V159.614H139.363V159.544H139.321V159.474H139.307V159.404H139.265V159.334H139.237V159.054H138.943V158.774H139.265V158.704H139.307V158.424C139.307 158.387 139.317 158.34 139.335 158.284H139.475C139.541 158.135 139.657 158.06 139.825 158.06H142.415C142.583 158.06 142.7 158.135 142.765 158.284H142.611C142.639 158.321 142.653 158.373 142.653 158.438V158.704H142.611V158.774H142.289V159.054H142.583V159.334H142.611V159.404H142.653V159.474H142.667V159.544H142.709V159.614H142.793V159.684H142.695V159.824H142.569V159.964H143.185V160.244H143.199V160.454H142.779V160.734H143.087V161.014H142.415V161.224H142.345V161.364H142.835V161.504H142.345V161.644H142.513V161.784H142.667V161.994H142.653V162.344H142.681V162.624H142.597V162.834H142.625V162.904H142.933V163.114H143.269V163.254H142.877V163.324H142.625V163.534H142.891V163.814H142.037V164.094H142.135V164.164H142.555V164.234H142.681V164.444H142.541V164.654H142.737V164.864H142.751V164.934H142.597V165.144H142.709V165.354H143.899V165.494H142.513V165.774ZM138.733 165.354C138.752 165.382 138.771 165.41 138.789 165.438C138.808 165.457 138.827 165.475 138.845 165.494H138.005C138.117 165.587 138.271 165.634 138.467 165.634C138.654 165.634 138.808 165.587 138.929 165.494H140.315C140.334 165.475 140.353 165.457 140.371 165.438C140.399 165.41 140.418 165.382 140.427 165.354H139.237C139.265 165.298 139.293 165.228 139.321 165.144H139.209C139.219 165.107 139.223 165.074 139.223 165.046C139.233 165.009 139.237 164.971 139.237 164.934H139.405V164.864H139.391V164.822C139.391 164.794 139.391 164.766 139.391 164.738C139.391 164.71 139.396 164.682 139.405 164.654H139.209V164.444H139.349V164.234H139.237V164.164H138.803V164.094H138.719C138.71 164.047 138.705 164.001 138.705 163.954C138.705 163.907 138.701 163.861 138.691 163.814H139.545V163.786C139.536 163.683 139.522 163.599 139.503 163.534H139.237C139.209 163.441 139.177 163.371 139.139 163.324H139.391C139.382 163.305 139.363 163.282 139.335 163.254H139.727C139.662 163.189 139.578 163.142 139.475 163.114H139.139C139.102 163.105 139.06 163.1 139.013 163.1C138.976 163.091 138.934 163.086 138.887 163.086C138.841 163.086 138.799 163.091 138.761 163.1C138.724 163.1 138.687 163.105 138.649 163.114H138.607C138.505 163.142 138.421 163.189 138.355 163.254H138.327C138.318 163.273 138.299 163.296 138.271 163.324H137.697C137.66 163.371 137.627 163.441 137.599 163.534H138.341C138.332 163.571 138.323 163.618 138.313 163.674C138.304 163.721 138.295 163.767 138.285 163.814H138.005V163.898C137.996 163.926 137.991 163.959 137.991 163.996C137.991 164.024 137.987 164.057 137.977 164.094H137.949V164.164H137.893V164.234C137.884 164.299 137.884 164.369 137.893 164.444H137.627V164.654H137.851C137.851 164.682 137.851 164.71 137.851 164.738C137.851 164.766 137.856 164.794 137.865 164.822V164.864C137.875 164.883 137.879 164.906 137.879 164.934H137.907L137.949 165.144H138.229C138.248 165.228 138.276 165.298 138.313 165.354H138.733ZM151.251 167.244V167.384H152.469V167.622C152.469 167.641 152.464 167.655 152.455 167.664H151.797C151.778 167.795 151.718 167.888 151.615 167.944H151.489C151.442 167.981 151.377 168 151.293 168H148.843C148.759 168 148.694 167.981 148.647 167.944H148.759C148.666 167.879 148.61 167.785 148.591 167.664H149.263V167.384H148.703C148.656 167.431 148.605 167.477 148.549 167.524C148.502 167.571 148.451 167.617 148.395 167.664H148.241C148.073 167.785 147.905 167.879 147.737 167.944H147.289C147.224 167.972 147.149 167.995 147.065 168.014C146.99 168.042 146.911 168.065 146.827 168.084H146.715C146.622 168.103 146.524 168.117 146.421 168.126C146.328 168.135 146.23 168.14 146.127 168.14C146.015 168.14 145.903 168.135 145.791 168.126C145.688 168.117 145.586 168.103 145.483 168.084H145.595C145.502 168.065 145.408 168.042 145.315 168.014C145.231 167.995 145.147 167.972 145.063 167.944H145.497C145.292 167.869 145.105 167.776 144.937 167.664H145.091C145.026 167.617 144.965 167.571 144.909 167.524C144.853 167.477 144.797 167.431 144.741 167.384H144.041L143.915 167.244C143.906 167.225 143.892 167.202 143.873 167.174C143.854 167.146 143.836 167.123 143.817 167.104H144.237C144.218 167.067 144.195 167.034 144.167 167.006C144.148 166.969 144.13 166.931 144.111 166.894H143.985C143.985 166.885 143.976 166.861 143.957 166.824H143.831L143.789 166.754H143.803L143.719 166.544H143.649C143.64 166.507 143.63 166.474 143.621 166.446C143.612 166.409 143.602 166.371 143.593 166.334H143.061C143.033 166.231 143.019 166.138 143.019 166.054H143.481V165.914C143.481 165.867 143.481 165.821 143.481 165.774C143.481 165.718 143.486 165.671 143.495 165.634H143.915C143.924 165.587 143.934 165.541 143.943 165.494C143.952 165.438 143.962 165.391 143.971 165.354H143.579L143.607 165.284H143.621L143.649 165.214H143.635C143.654 165.177 143.672 165.144 143.691 165.116C143.71 165.079 143.724 165.041 143.733 165.004H142.907L142.991 164.864H142.683C142.711 164.836 142.73 164.813 142.739 164.794H143.243C143.262 164.775 143.28 164.752 143.299 164.724C143.318 164.696 143.336 164.673 143.355 164.654H143.383C143.476 164.542 143.574 164.449 143.677 164.374H142.529C142.594 164.327 142.664 164.281 142.739 164.234C142.804 164.178 142.874 164.131 142.949 164.094H143.719L143.845 164.024H144.237C144.256 164.005 144.279 163.991 144.307 163.982C144.335 163.973 144.358 163.963 144.377 163.954H144.545C144.713 163.87 144.895 163.8 145.091 163.744H145.945C146.076 163.697 146.206 163.66 146.337 163.632C146.477 163.595 146.622 163.562 146.771 163.534H146.421L146.645 163.492L148.129 163.254V163.184H148.843V163.114H147.499V163.044H148.297C148.297 162.997 148.297 162.96 148.297 162.932C148.297 162.895 148.292 162.862 148.283 162.834C148.274 162.75 148.241 162.68 148.185 162.624H147.947C147.938 162.615 147.914 162.601 147.877 162.582L147.779 162.624H147.541C147.504 162.652 147.466 162.685 147.429 162.722C147.392 162.75 147.35 162.787 147.303 162.834H147.317C147.214 162.937 147.084 162.988 146.925 162.988H144.545C144.405 162.988 144.312 162.937 144.265 162.834H144.251C144.223 162.787 144.214 162.736 144.223 162.68V162.624H144.447C144.456 162.605 144.461 162.582 144.461 162.554H143.565C143.565 162.517 143.574 162.47 143.593 162.414H145.609C145.609 162.405 145.618 162.381 145.637 162.344H144.391C144.419 162.251 144.461 162.157 144.517 162.064H144.755C144.783 162.017 144.816 161.971 144.853 161.924C144.89 161.877 144.928 161.831 144.965 161.784H143.915L144.041 161.644H146.071C146.108 161.607 146.146 161.574 146.183 161.546C146.23 161.509 146.272 161.471 146.309 161.434H145.021L145.105 161.364H144.713C144.76 161.327 144.811 161.294 144.867 161.266C144.923 161.229 144.979 161.191 145.035 161.154H145.693C145.889 161.042 146.094 160.949 146.309 160.874H146.407C146.659 160.781 146.939 160.711 147.247 160.664C147.564 160.608 147.91 160.58 148.283 160.58C149.048 160.58 149.697 160.678 150.229 160.874H150.117C150.22 160.911 150.318 160.953 150.411 161C150.514 161.047 150.612 161.098 150.705 161.154H150.047L150.341 161.364H150.733L150.817 161.434H152.105L152.315 161.644H150.285C150.304 161.663 150.322 161.686 150.341 161.714C150.36 161.742 150.378 161.765 150.397 161.784H151.433C151.47 161.821 151.503 161.868 151.531 161.924C151.568 161.971 151.596 162.017 151.615 162.064H151.391L151.517 162.344H152.763C152.782 162.381 152.791 162.405 152.791 162.414H150.775C150.794 162.433 150.803 162.456 150.803 162.484C150.812 162.512 150.822 162.535 150.831 162.554H151.293C151.293 162.563 151.293 162.573 151.293 162.582C151.302 162.591 151.307 162.605 151.307 162.624H151.545L151.629 163.044H150.817C150.817 163.053 150.817 163.063 150.817 163.072C150.826 163.081 150.831 163.095 150.831 163.114H152.175V163.184H151.475V163.254C151.484 163.301 151.489 163.347 151.489 163.394C151.489 163.441 151.489 163.487 151.489 163.534H151.853V163.744H150.985V163.954H150.831V164.024H150.453V164.094H149.683V164.374H150.831V164.654H150.803V164.794H150.299V164.864H150.607V165.004H151.531V165.214H151.363V165.354H151.475V165.634H151.391V166.054H150.929V166.334H151.461V166.544H151.531V166.824H151.657V166.894H151.769V167.104H151.335V167.244H151.251ZM147.191 162.54C147.126 162.54 147.079 162.545 147.051 162.554H147.345C147.317 162.545 147.266 162.54 147.191 162.54ZM147.289 164.976L147.163 165.004H147.289V164.976ZM146.813 165.354H147.205C147.102 165.429 147.051 165.522 147.051 165.634H146.631V165.676C146.631 165.769 146.664 165.849 146.729 165.914C146.776 165.979 146.869 166.026 147.009 166.054H147.345C147.485 166.026 147.606 165.979 147.709 165.914C147.793 165.839 147.872 165.746 147.947 165.634H148.017C148.036 165.587 148.054 165.545 148.073 165.508C148.092 165.461 148.106 165.41 148.115 165.354H148.003C148.003 165.335 148.003 165.321 148.003 165.312C148.012 165.303 148.017 165.293 148.017 165.284H148.031V165.214H148.199C148.208 165.177 148.213 165.144 148.213 165.116C148.213 165.079 148.213 165.041 148.213 165.004H147.975L147.289 165.158C147.252 165.167 147.214 165.177 147.177 165.186C147.149 165.195 147.121 165.205 147.093 165.214C147.065 165.223 147.037 165.233 147.009 165.242C146.981 165.251 146.958 165.265 146.939 165.284H146.925C146.906 165.293 146.888 165.303 146.869 165.312C146.85 165.321 146.832 165.335 146.813 165.354ZM146.883 166.054H146.533C146.57 166.063 146.626 166.068 146.701 166.068C146.729 166.068 146.757 166.068 146.785 166.068C146.822 166.068 146.855 166.063 146.883 166.054ZM160.814 166.964H162.9V167.244H161.71V167.454H161.514V167.594H160.646V167.664H161.08C161.061 167.795 161.005 167.888 160.912 167.944H160.604C160.557 167.981 160.487 168 160.394 168H157.72C157.636 168 157.571 167.981 157.524 167.944H157.832C157.739 167.888 157.683 167.795 157.664 167.664H157.216V167.594H158.084V167.454H158.28V167.244H159.47V166.964H157.384V166.684H157.902V166.614H157.44V166.474H157.454V166.334H157.23V166.054H157.412V165.774H156.838V165.494H156.978V165.214H157.622V164.934H157.468V164.794H157.412V164.724H157.356V164.514H157.44V164.444H157.51V164.304H157.496V164.164H157.454V164.024H156.866V163.884H157.02V163.856C157.02 163.819 157.015 163.786 157.006 163.758C157.006 163.73 157.006 163.702 157.006 163.674H157.286C157.277 163.627 157.267 163.59 157.258 163.562C157.249 163.525 157.239 163.492 157.23 163.464H157.482C157.426 163.343 157.347 163.249 157.244 163.184H156.796C156.693 163.119 156.558 163.086 156.39 163.086C156.222 163.086 156.091 163.119 155.998 163.184H156.334C156.287 163.221 156.241 163.263 156.194 163.31C156.157 163.347 156.129 163.399 156.11 163.464H155.69C155.671 163.501 155.653 163.571 155.634 163.674H155.704C155.695 163.711 155.69 163.772 155.69 163.856V163.884H155.592V164.024H156.054V164.164H156.082V164.304H156.04V164.444H155.942V164.514H155.844V164.724H155.998V164.794H156.096V164.934H156.04V165.214H156.404V165.494H156.012V165.774H156.082V166.054H155.928V166.334H156.096V166.474H156.082V166.544H156.124V166.614H156.894V166.684H157.216V166.964H156.348V167.244H156.376V167.454H155.844V167.594H156.446V167.664H156.6C156.581 167.795 156.521 167.888 156.418 167.944H155.774C155.727 167.981 155.662 168 155.578 168H152.918C152.834 168 152.769 167.981 152.722 167.944H153.366C153.263 167.888 153.203 167.795 153.184 167.664H153.03V167.594H152.428V167.454H152.96V167.244H152.932V166.964H153.8V166.684H153.478V166.614H152.708V166.544H152.666V166.474H152.68V166.334H152.512V166.054H152.666V165.774H152.596V165.494H152.988V165.214H152.624V164.934H152.68V164.794H152.582V164.724H152.428V164.514H152.526V164.444H152.624V164.304H152.666V164.164H152.638V164.024H152.176V163.884H152.274V163.674H152.204V163.464H152.624V163.184H152.274V162.974H152.582V162.834H152.666V162.624H152.61V162.414H152.624V162.064H152.694V161.924H152.68V161.714H152.862V161.644H152.75V161.434H152.918V161.364H152.358V161.224H152.764V161.014H153.52C153.539 160.958 153.557 160.911 153.576 160.874H153.128C153.203 160.771 153.305 160.72 153.436 160.72H155.886C156.017 160.72 156.119 160.771 156.194 160.874H156.432C156.637 160.781 156.857 160.711 157.09 160.664C157.323 160.608 157.566 160.58 157.818 160.58C158.285 160.58 158.705 160.678 159.078 160.874H159.232C159.279 160.893 159.321 160.916 159.358 160.944C159.395 160.963 159.433 160.986 159.47 161.014H159.274C159.321 161.042 159.367 161.075 159.414 161.112C159.461 161.14 159.503 161.177 159.54 161.224H160.632C160.688 161.261 160.735 161.308 160.772 161.364H160.002C160.011 161.373 160.021 161.383 160.03 161.392C160.039 161.401 160.049 161.415 160.058 161.434H160.254C160.282 161.471 160.31 161.509 160.338 161.546C160.366 161.574 160.389 161.607 160.408 161.644H160.534L160.576 161.714H160.394L160.52 161.924H160.534C160.553 161.971 160.576 162.017 160.604 162.064H160.534C160.581 162.167 160.618 162.26 160.646 162.344C160.646 162.353 160.655 162.377 160.674 162.414H160.66C160.679 162.451 160.688 162.489 160.688 162.526C160.697 162.554 160.707 162.587 160.716 162.624H160.772C160.791 162.661 160.8 162.699 160.8 162.736C160.809 162.764 160.819 162.797 160.828 162.834H160.73C160.749 162.89 160.758 162.937 160.758 162.974H160.464C160.473 163.011 160.478 163.049 160.478 163.086C160.478 163.114 160.483 163.147 160.492 163.184H160.94C160.949 163.221 160.954 163.268 160.954 163.324C160.963 163.371 160.968 163.417 160.968 163.464H160.716V163.674H160.45V163.884H160.296V164.024H160.884V164.164H160.926V164.304H160.94V164.444H160.87V164.514H160.786V164.724H160.842V164.794H160.898V164.934H161.052V165.214H160.408V165.494H160.268V165.774H160.842V166.054H160.66V166.334H160.884V166.474H160.87V166.614H161.332V166.684H160.814V166.964ZM156.11 161.014H155.956C155.956 161.023 155.956 161.037 155.956 161.056C155.965 161.065 155.97 161.079 155.97 161.098V161.112C155.989 161.093 156.012 161.075 156.04 161.056C156.068 161.037 156.091 161.023 156.11 161.014ZM155.564 161.224V161.364H156.726L156.894 161.224H155.564ZM155.956 161.434V161.56C155.975 161.532 156.012 161.49 156.068 161.434H155.956Z" fill="white" fill-opacity="0.5"/>
<defs>
<radialGradient id="paint0_radial_1_14" cx="0" cy="0" r="1" gradientUnits="userSpaceOnUse" gradientTransform="translate(85 88) rotate(90) scale(88 85)">
<stop stop-color="#B9BEEA"/>
<stop offset="1" stop-color="#2D368D"/>
</radialGradient>
</defs>
</svg>
